<?xml version="1.0" encoding="UTF-8" standalone="no"?>
<svg width="24px" height="26px" viewBox="0 0 24 26" version="1.1" xmlns="http://www.w3.org/2000/svg" xmlns:xlink="http://www.w3.org/1999/xlink" xmlns:sketch="http://www.bohemiancoding.com/sketch/ns">
    <!-- Generator: Sketch 3.1 (8751) - http://www.bohemiancoding.com/sketch -->
    <title>cube</title>
    <desc>Created with Sketch.</desc>
    <defs></defs>
    <g id="Page-1" stroke="none" stroke-width="1" fill="none" fill-rule="evenodd" sketch:type="MSPage">
        <g id="680x680" sketch:type="MSArtboardGroup" transform="translate(-529.000000, -48.000000)" fill="#FFFFFF">
            <g id="Row-1" sketch:type="MSLayerGroup" transform="translate(52.000000, 48.000000)">
                <path d="M487.599,14.5218836 L487.599,24.5808836 C487.599,25.1658836 486.966,25.5318836 486.459,25.2388836 L477.752,20.2118836 C477.287,19.9438836 477,19.4468836 477,18.9098836 L477,8.85088355 C477,8.26588355 477.634,7.89988355 478.14,8.19288355 L486.847,13.2198836 C487.313,13.4878836 487.599,13.9848836 487.599,14.5218836 L487.599,14.5218836 Z M489.263,11.5288836 L497.992,6.48988355 C498.499,6.19688355 498.498,5.46388355 497.99,5.17188355 L489.313,0.198883554 C488.847,-0.0681164456 488.273,-0.0661164456 487.808,0.203883554 L479.149,5.24488355 C478.645,5.53788355 478.646,6.26788355 479.152,6.55988355 L487.759,11.5288836 C488.224,11.7978836 488.798,11.7978836 489.263,11.5288836 L489.263,11.5288836 Z M489.519,14.4668836 L489.519,24.5808836 C489.519,25.1658836 490.153,25.5318836 490.659,25.2388836 L499.366,20.2118836 C499.831,19.9438836 500.118,19.4468836 500.118,18.9098836 L500.118,8.79488355 C500.118,8.20988355 499.485,7.84488355 498.978,8.13688355 L490.271,13.1638836 C489.806,13.4328836 489.519,13.9288836 489.519,14.4668836 L489.519,14.4668836 Z" id="cube" sketch:type="MSShapeGroup"></path>
            </g>
        </g>
    </g>
</svg>