<?xml version="1.0" encoding="UTF-8" standalone="no"?>
<svg width="24px" height="24px" viewBox="0 0 24 24" version="1.1" xmlns="http://www.w3.org/2000/svg" xmlns:xlink="http://www.w3.org/1999/xlink" xmlns:sketch="http://www.bohemiancoding.com/sketch/ns">
    <!-- Generator: Sketch 3.1 (8751) - http://www.bohemiancoding.com/sketch -->
    <title>Dribbble</title>
    <desc>Created with Sketch.</desc>
    <defs></defs>
    <g id="Page-1" stroke="none" stroke-width="1" fill="none" fill-rule="evenodd" sketch:type="MSPage">
        <g id="680x680" sketch:type="MSArtboardGroup" transform="translate(-212.000000, -209.000000)" fill="#FFFFFF">
            <path d="M224,209.06 C217.406,209.06 212.06,214.406 212.06,221 C212.06,227.596 217.406,232.94 224,232.94 C230.595,232.94 235.94,227.596 235.94,221 C235.94,214.406 230.595,209.06 224,209.06 L224,209.06 Z M231.576,214.561 C232.92,216.138 233.774,218.141 233.92,220.338 C231.77,220.224 229.196,220.226 227.127,220.421 C226.867,219.76 226.598,219.113 226.309,218.493 C228.695,217.461 230.531,216.105 231.576,214.561 L231.576,214.561 Z M224,211.051 C226.413,211.051 228.625,211.911 230.348,213.341 C229.266,214.71 227.573,215.899 225.457,216.797 C224.299,214.66 222.971,212.819 221.553,211.366 C222.337,211.167 223.154,211.051 224,211.051 L224,211.051 Z M219.498,212.135 C220.936,213.563 222.285,215.389 223.465,217.518 C221.218,218.202 218.643,218.596 215.898,218.596 C215.379,218.596 214.868,218.577 214.362,218.548 C215.075,215.745 216.975,213.42 219.498,212.135 L219.498,212.135 Z M214.067,220.525 C214.633,220.55 215.205,220.56 215.786,220.554 C218.918,220.515 221.839,220.028 224.343,219.224 C224.577,219.716 224.801,220.22 225.015,220.737 C224.673,220.816 224.37,220.903 224.126,221.005 C220.698,222.441 218.001,224.762 216.538,227.567 C214.994,225.813 214.05,223.52 214.05,221 C214.05,220.841 214.06,220.683 214.067,220.525 L214.067,220.525 Z M224,230.95 C221.7,230.95 219.588,230.164 217.902,228.852 C219.226,226.23 221.589,224.06 224.57,222.709 C224.852,222.58 225.224,222.474 225.652,222.381 C226.004,223.366 226.326,224.386 226.601,225.44 C227.034,227.09 227.335,228.715 227.522,230.298 C226.426,230.715 225.242,230.95 224,230.95 L224,230.95 Z M229.377,229.365 C229.19,227.767 228.886,226.126 228.45,224.459 C228.238,223.651 227.995,222.867 227.737,222.1 C229.688,221.94 232.029,221.965 233.886,222.1 C233.548,225.151 231.835,227.78 229.377,229.365 L229.377,229.365 Z" id="Dribbble" sketch:type="MSShapeGroup"></path>
        </g>
    </g>
</svg>